<svg width="164" height="61" viewBox="0 0 164 61" fill="none" xmlns="http://www.w3.org/2000/svg">
<g filter="url(#filter0_d_31_268)">
<path d="M13.583 4.44727C14.3577 4.44727 15.1104 4.58008 15.8408 4.8457C16.5934 5.11133 17.3128 5.4987 17.999 6.00781C18.1097 6.11849 18.2314 6.22917 18.3643 6.33984C18.4749 6.22917 18.5967 6.11849 18.7295 6.00781C19.4157 5.4987 20.124 5.11133 20.8545 4.8457C21.6071 4.58008 22.3597 4.44727 23.1123 4.44727C23.887 4.44727 24.6396 4.58008 25.3701 4.8457C26.1227 5.11133 26.8311 5.50977 27.4951 6.04102C28.1813 6.55013 28.779 7.23633 29.2881 8.09961C29.8193 8.96289 30.085 9.99219 30.085 11.1875V23.1738C29.9521 24.502 29.2217 25.2214 27.8936 25.332C27.2738 25.332 26.7314 25.1328 26.2666 24.7344C25.8239 24.3138 25.6025 23.7936 25.6025 23.1738V11.4531C25.6025 10.9219 25.5029 10.4792 25.3037 10.125C25.1045 9.7487 24.8831 9.46094 24.6396 9.26172C24.3962 9.04036 24.1416 8.88542 23.876 8.79688C23.6104 8.6862 23.3447 8.63086 23.0791 8.63086C22.8135 8.63086 22.5479 8.6862 22.2822 8.79688C22.0387 8.88542 21.7952 9.04036 21.5518 9.26172C21.3083 9.46094 21.0869 9.7487 20.8877 10.125C20.6885 10.4792 20.5778 10.9219 20.5557 11.4531V23.1738C20.4229 24.502 19.6924 25.2214 18.3643 25.332C17.7445 25.332 17.2021 25.1328 16.7373 24.7344C16.2946 24.3138 16.0732 23.7936 16.0732 23.1738V11.4531C16.0732 10.9219 15.9736 10.4792 15.7744 10.125C15.5752 9.7487 15.3538 9.46094 15.1104 9.26172C14.8669 9.04036 14.6123 8.88542 14.3467 8.79688C14.0811 8.6862 13.8154 8.63086 13.5498 8.63086C13.2842 8.63086 13.0186 8.6862 12.7529 8.79688C12.5094 8.88542 12.266 9.04036 12.0225 9.26172C11.779 9.46094 11.5576 9.7487 11.3584 10.125C11.1592 10.4792 11.0485 10.9219 11.0264 11.4531V23.1738C10.9157 24.502 10.1963 25.2214 8.86816 25.332C8.24837 25.332 7.70605 25.1328 7.24121 24.7344C6.7985 24.3138 6.57715 23.7936 6.57715 23.1738V11.1875C6.62142 9.99219 6.89811 8.96289 7.40723 8.09961C7.91634 7.23633 8.514 6.55013 9.2002 6.04102C9.88639 5.50977 10.5947 5.11133 11.3252 4.8457C12.0778 4.58008 12.8304 4.44727 13.583 4.44727ZM41.7393 19.7871C41.7393 19.1673 41.9495 18.6471 42.3701 18.2266C42.8128 17.7839 43.3441 17.5625 43.9639 17.5625H49.0439L48.1807 15.1055C47.8265 14.1979 47.4723 13.3457 47.1182 12.5488C46.7861 11.7298 46.3988 10.9883 45.9561 10.3242C45.5576 9.66016 45.1038 9.30599 44.5947 9.26172C44.0635 9.30599 43.5876 9.66016 43.167 10.3242C42.7464 10.9883 42.359 11.7298 42.0049 12.5488C41.6729 13.3457 41.3298 14.1979 40.9756 15.1055L37.8213 23.7383C37.5999 24.2031 37.3122 24.5905 36.958 24.9004C36.626 25.1882 36.1169 25.332 35.4307 25.332C34.7887 25.332 34.2575 25.1107 33.8369 24.668C33.4385 24.2253 33.2614 23.694 33.3057 23.0742C33.3278 22.7865 33.3942 22.5208 33.5049 22.2773L37.1572 12.8477C38.1755 10.3685 39.1937 8.36523 40.2119 6.83789C41.208 5.33268 42.6689 4.56901 44.5947 4.54688C46.4984 4.56901 47.9482 5.33268 48.9443 6.83789C49.9626 8.32096 50.9808 10.3242 51.999 12.8477L55.6514 22.2773C55.762 22.5208 55.8285 22.7865 55.8506 23.0742C55.8949 23.694 55.7067 24.2253 55.2861 24.668C54.8877 25.1107 54.3675 25.332 53.7256 25.332C52.9951 25.332 52.4528 25.1882 52.0986 24.9004C51.7666 24.5905 51.4899 24.2031 51.2686 23.7383L50.6377 22.0117H43.9639C43.3441 22.0117 42.8239 21.7904 42.4033 21.3477C41.9606 20.9271 41.7393 20.4069 41.7393 19.7871ZM63.6533 23.2402C63.5205 24.5684 62.79 25.2878 61.4619 25.3984C60.8421 25.3984 60.2998 25.1992 59.835 24.8008C59.3923 24.3802 59.1709 23.86 59.1709 23.2402V7.50195C59.193 6.88216 59.4255 6.37305 59.8682 5.97461C60.3109 5.55404 60.8421 5.34375 61.4619 5.34375H63.0889H67.1729H75.374C75.5068 5.34375 75.6396 5.35482 75.7725 5.37695H75.9717C77.5212 5.42122 78.7939 5.77539 79.79 6.43945C80.7861 7.10352 81.5055 7.86719 81.9482 8.73047C82.391 9.57161 82.6123 10.4238 82.6123 11.2871C82.6123 12.1725 82.391 13.0469 81.9482 13.9102C81.5277 14.7513 80.8083 15.5039 79.79 16.168C78.7939 16.832 77.5212 17.1862 75.9717 17.2305H70.1279C70.305 18.3372 70.6702 19.1562 71.2236 19.6875C71.7549 20.2188 72.43 20.4844 73.249 20.4844H80.4209C81.0407 20.5065 81.5498 20.7389 81.9482 21.1816C82.3688 21.6243 82.5791 22.1556 82.5791 22.7754C82.557 23.373 82.3356 23.8822 81.915 24.3027C81.5166 24.7012 81.0186 24.9115 80.4209 24.9336H72.6514C71.0133 24.9557 69.5303 24.3138 68.2021 23.0078C66.874 21.7018 66.0661 20.1523 65.7783 18.3594C65.3799 16.3672 65.1807 15.2493 65.1807 15.0059C65.1807 14.3861 65.391 13.8659 65.8115 13.4453C66.2542 13.0026 66.7855 12.7812 67.4053 12.7812H76.1709C76.5915 12.7591 76.9346 12.6706 77.2002 12.5156C77.488 12.3385 77.6982 12.1504 77.8311 11.9512C77.9639 11.7298 78.0303 11.5085 78.0303 11.2871C78.0303 11.0658 77.9639 10.8555 77.8311 10.6562C77.6982 10.4349 77.488 10.2467 77.2002 10.0918C76.9346 9.91471 76.5915 9.8151 76.1709 9.79297H67.1729H64.5166C63.9411 9.8151 63.6533 10.1029 63.6533 10.6562V23.2402ZM108.345 16.168C108.765 17.0534 108.976 17.9499 108.976 18.8574C108.976 19.7428 108.754 20.6283 108.312 21.5137C107.869 22.377 107.149 23.1517 106.153 23.8379C105.157 24.502 103.884 24.834 102.335 24.834H102.136C102.003 24.8561 101.87 24.8672 101.737 24.8672H88.3896C87.792 24.8451 87.2829 24.6348 86.8623 24.2363C86.4639 23.8158 86.2536 23.3066 86.2314 22.709V7.50195C86.2536 6.9043 86.4639 6.40625 86.8623 6.00781C87.2829 5.58724 87.792 5.36589 88.3896 5.34375H99.8115C99.9443 5.34375 100.077 5.35482 100.21 5.37695H100.409C101.959 5.42122 103.231 5.77539 104.228 6.43945C105.224 7.10352 105.943 7.86719 106.386 8.73047C106.828 9.57161 107.05 10.4238 107.05 11.2871C107.05 12.1725 106.84 13.0358 106.419 13.877C106.397 13.9212 106.375 13.9544 106.353 13.9766C107.26 14.6185 107.924 15.349 108.345 16.168ZM102.534 20.418C102.955 20.4401 103.298 20.3626 103.563 20.1855C103.851 20.0085 104.062 19.8092 104.194 19.5879C104.327 19.3444 104.394 19.1009 104.394 18.8574C104.394 18.7025 104.327 18.4922 104.194 18.2266C104.062 17.9388 103.851 17.7064 103.563 17.5293C103.298 17.3522 102.955 17.2526 102.534 17.2305H100.409H90.7139V19.5215C90.7139 20.1191 91.0238 20.418 91.6436 20.418H91.9092H102.534ZM101.671 12.4824C101.937 12.3275 102.136 12.1504 102.269 11.9512C102.401 11.7298 102.468 11.5085 102.468 11.2871C102.468 11.0658 102.401 10.8555 102.269 10.6562C102.136 10.4349 101.925 10.2467 101.638 10.0918C101.372 9.91471 101.029 9.8151 100.608 9.79297H91.6436C91.0238 9.79297 90.7139 10.0918 90.7139 10.6895V12.7812H100.608C101.029 12.7591 101.383 12.6595 101.671 12.4824ZM114.62 4.8125C115.24 4.8125 115.771 5.02279 116.214 5.44336C116.657 5.8418 116.889 6.35091 116.911 6.9707V14.9727C116.889 15.8802 116.944 16.7214 117.077 17.4961C117.232 18.2487 117.586 18.9238 118.14 19.5215C118.693 20.1191 119.39 20.4401 120.231 20.4844H130.856C131.476 20.5065 131.985 20.7389 132.384 21.1816C132.804 21.6243 133.015 22.1556 133.015 22.7754C132.993 23.373 132.771 23.8822 132.351 24.3027C131.952 24.7012 131.454 24.9115 130.856 24.9336H119.103C117.553 24.8451 116.269 24.3249 115.251 23.373C114.255 22.3991 113.535 21.2148 113.093 19.8203C112.672 18.4258 112.451 16.9427 112.429 15.3711V6.9707C112.451 6.37305 112.672 5.875 113.093 5.47656C113.513 5.05599 114.022 4.83464 114.62 4.8125ZM142.345 5.34375H143.872H155.161C155.781 5.36589 156.29 5.59831 156.688 6.04102C157.109 6.48372 157.319 7.01497 157.319 7.63477C157.209 8.96289 156.489 9.68229 155.161 9.79297H143.474C142.632 9.83724 141.935 10.1582 141.382 10.7559C140.828 11.3535 140.419 12.0397 140.153 12.8145C139.91 13.5671 139.788 14.3418 139.788 15.1387C139.788 15.9355 139.91 16.7214 140.153 17.4961C140.419 18.2487 140.828 18.9238 141.382 19.5215C141.935 20.1191 142.632 20.4401 143.474 20.4844H155.161C155.781 20.5065 156.29 20.7389 156.688 21.1816C157.109 21.6243 157.319 22.1556 157.319 22.7754C157.297 23.373 157.076 23.8822 156.655 24.3027C156.257 24.7012 155.759 24.9115 155.161 24.9336H142.976H142.345C140.795 24.8451 139.511 24.2585 138.493 23.1738C137.497 22.0671 136.778 20.8164 136.335 19.4219C135.914 18.0273 135.704 16.5996 135.704 15.1387C135.704 13.6777 135.925 12.25 136.368 10.8555C136.811 9.46094 137.53 8.22135 138.526 7.13672C139.522 6.02995 140.795 5.43229 142.345 5.34375ZM157.253 15.0059C157.253 15.6257 157.032 16.1458 156.589 16.5664C156.168 17.0091 155.648 17.2305 155.028 17.2305H145.001C144.381 17.2305 143.85 17.0202 143.407 16.5996C142.987 16.1569 142.776 15.6257 142.776 15.0059C142.776 14.3861 142.987 13.8548 143.407 13.4121C143.85 12.9915 144.381 12.7812 145.001 12.7812H155.028C155.648 12.7812 156.168 13.0026 156.589 13.4453C157.032 13.8659 157.253 14.3861 157.253 15.0059ZM37.9375 48.2402C37.8047 49.5684 37.0742 50.2878 35.7461 50.3984C35.1263 50.3984 34.584 50.1992 34.1191 49.8008C33.6764 49.3802 33.4551 48.86 33.4551 48.2402V32.502C33.4772 31.8822 33.7096 31.373 34.1523 30.9746C34.5951 30.554 35.1263 30.3438 35.7461 30.3438H37.373H41.457H49.6582C49.791 30.3438 49.9238 30.3548 50.0566 30.377H50.2559C51.8053 30.4212 53.0781 30.7754 54.0742 31.4395C55.0703 32.1035 55.7897 32.8672 56.2324 33.7305C56.6751 34.5716 56.8965 35.4238 56.8965 36.2871C56.8965 37.1725 56.6751 38.0469 56.2324 38.9102C55.8118 39.7513 55.0924 40.5039 54.0742 41.168C53.0781 41.832 51.8053 42.1862 50.2559 42.2305H44.4121C44.5892 43.3372 44.9544 44.1562 45.5078 44.6875C46.0391 45.2188 46.7142 45.4844 47.5332 45.4844H54.7051C55.3249 45.5065 55.834 45.7389 56.2324 46.1816C56.653 46.6243 56.8633 47.1556 56.8633 47.7754C56.8411 48.373 56.6198 48.8822 56.1992 49.3027C55.8008 49.7012 55.3027 49.9115 54.7051 49.9336H46.9355C45.2975 49.9557 43.8145 49.3138 42.4863 48.0078C41.1582 46.7018 40.3503 45.1523 40.0625 43.3594C39.6641 41.3672 39.4648 40.2493 39.4648 40.0059C39.4648 39.3861 39.6751 38.8659 40.0957 38.4453C40.5384 38.0026 41.0697 37.7812 41.6895 37.7812H50.4551C50.8757 37.7591 51.2188 37.6706 51.4844 37.5156C51.7721 37.3385 51.9824 37.1504 52.1152 36.9512C52.248 36.7298 52.3145 36.5085 52.3145 36.2871C52.3145 36.0658 52.248 35.8555 52.1152 35.6562C51.9824 35.4349 51.7721 35.2467 51.4844 35.0918C51.2188 34.9147 50.8757 34.8151 50.4551 34.793H41.457H38.8008C38.2253 34.8151 37.9375 35.1029 37.9375 35.6562V48.2402ZM67.9531 44.7871C67.9531 44.1673 68.1634 43.6471 68.584 43.2266C69.0267 42.7839 69.5579 42.5625 70.1777 42.5625H75.2578L74.3945 40.1055C74.0404 39.1979 73.6862 38.3457 73.332 37.5488C73 36.7298 72.6126 35.9883 72.1699 35.3242C71.7715 34.6602 71.3177 34.306 70.8086 34.2617C70.2773 34.306 69.8014 34.6602 69.3809 35.3242C68.9603 35.9883 68.5729 36.7298 68.2188 37.5488C67.8867 38.3457 67.5436 39.1979 67.1895 40.1055L64.0352 48.7383C63.8138 49.2031 63.526 49.5905 63.1719 49.9004C62.8398 50.1882 62.3307 50.332 61.6445 50.332C61.0026 50.332 60.4714 50.1107 60.0508 49.668C59.6523 49.2253 59.4753 48.694 59.5195 48.0742C59.5417 47.7865 59.6081 47.5208 59.7188 47.2773L63.3711 37.8477C64.3893 35.3685 65.4076 33.3652 66.4258 31.8379C67.4219 30.3327 68.8828 29.569 70.8086 29.5469C72.7122 29.569 74.1621 30.3327 75.1582 31.8379C76.1764 33.321 77.1947 35.3242 78.2129 37.8477L81.8652 47.2773C81.9759 47.5208 82.0423 47.7865 82.0645 48.0742C82.1087 48.694 81.9206 49.2253 81.5 49.668C81.1016 50.1107 80.5814 50.332 79.9395 50.332C79.209 50.332 78.6667 50.1882 78.3125 49.9004C77.9805 49.5905 77.7038 49.2031 77.4824 48.7383L76.8516 47.0117H70.1777C69.5579 47.0117 69.0378 46.7904 68.6172 46.3477C68.1745 45.9271 67.9531 45.4069 67.9531 44.7871ZM92.9551 34.793C92.1139 34.8372 91.4056 35.1582 90.8301 35.7559C90.2767 36.3535 89.8783 37.0397 89.6348 37.8145C89.3913 38.5671 89.2695 39.3418 89.2695 40.1387C89.2695 40.9355 89.3802 41.7214 89.6016 42.4961C89.8451 43.2708 90.2546 43.957 90.8301 44.5547C91.4056 45.1302 92.1139 45.4401 92.9551 45.4844H103.912C105.307 45.6172 106.07 46.3809 106.203 47.7754C106.181 48.3952 105.949 48.9154 105.506 49.3359C105.063 49.7344 104.532 49.9336 103.912 49.9336H93.3203H91.793C90.2435 49.8451 88.9707 49.2585 87.9746 48.1738C86.9785 47.0671 86.2591 45.8164 85.8164 44.4219C85.3958 43.0273 85.1855 41.5996 85.1855 40.1387C85.1855 39.054 85.3073 37.9805 85.5508 36.918C85.7943 35.8555 86.1706 34.8483 86.6797 33.8965C87.2109 32.9225 87.9082 32.0924 88.7715 31.4062C89.6569 30.7201 90.6641 30.3659 91.793 30.3438H92.4238H103.912C105.307 30.4766 106.07 31.2402 106.203 32.6348C106.203 33.2546 105.971 33.7747 105.506 34.1953C105.063 34.5938 104.532 34.793 103.912 34.793H92.9551ZM115.434 30.3438H116.961H128.25C128.87 30.3659 129.379 30.5983 129.777 31.041C130.198 31.4837 130.408 32.015 130.408 32.6348C130.298 33.9629 129.578 34.6823 128.25 34.793H116.562C115.721 34.8372 115.024 35.1582 114.471 35.7559C113.917 36.3535 113.508 37.0397 113.242 37.8145C112.999 38.5671 112.877 39.3418 112.877 40.1387C112.877 40.9355 112.999 41.7214 113.242 42.4961C113.508 43.2487 113.917 43.9238 114.471 44.5215C115.024 45.1191 115.721 45.4401 116.562 45.4844H128.25C128.87 45.5065 129.379 45.7389 129.777 46.1816C130.198 46.6243 130.408 47.1556 130.408 47.7754C130.386 48.373 130.165 48.8822 129.744 49.3027C129.346 49.7012 128.848 49.9115 128.25 49.9336H116.064H115.434C113.884 49.8451 112.6 49.2585 111.582 48.1738C110.586 47.0671 109.867 45.8164 109.424 44.4219C109.003 43.0273 108.793 41.5996 108.793 40.1387C108.793 38.6777 109.014 37.25 109.457 35.8555C109.9 34.4609 110.619 33.2214 111.615 32.1367C112.611 31.0299 113.884 30.4323 115.434 30.3438ZM130.342 40.0059C130.342 40.6257 130.12 41.1458 129.678 41.5664C129.257 42.0091 128.737 42.2305 128.117 42.2305H118.09C117.47 42.2305 116.939 42.0202 116.496 41.5996C116.076 41.1569 115.865 40.6257 115.865 40.0059C115.865 39.3861 116.076 38.8548 116.496 38.4121C116.939 37.9915 117.47 37.7812 118.09 37.7812H128.117C128.737 37.7812 129.257 38.0026 129.678 38.4453C130.12 38.8659 130.342 39.3861 130.342 40.0059Z" fill="white"/>
</g>
<defs>
<filter id="filter0_d_31_268" x="0.577148" y="2.44727" width="162.742" height="57.9512" filterUnits="userSpaceOnUse" color-interpolation-filters="sRGB">
<feFlood flood-opacity="0" result="BackgroundImageFix"/>
<feColorMatrix in="SourceAlpha" type="matrix" values="0 0 0 0 0 0 0 0 0 0 0 0 0 0 0 0 0 0 127 0" result="hardAlpha"/>
<feOffset dy="4"/>
<feGaussianBlur stdDeviation="3"/>
<feComposite in2="hardAlpha" operator="out"/>
<feColorMatrix type="matrix" values="0 0 0 0 0 0 0 0 0 0 0 0 0 0 0 0 0 0 0.75 0"/>
<feBlend mode="normal" in2="BackgroundImageFix" result="effect1_dropShadow_31_268"/>
<feBlend mode="normal" in="SourceGraphic" in2="effect1_dropShadow_31_268" result="shape"/>
</filter>
</defs>
</svg>
